Coordinates
version=1
nRows=10
nColumns=40
inDegrees=yes

Units are S.I. units (second, meters, Newtons, ...)
Angles are in degrees.

endheader
time	pelvis_tilt	pelvis_list	pelvis_rotation	pelvis_tx	pelvis_ty	pelvis_tz	hip_flexion_r	hip_adduction_r	hip_rotation_r	knee_angle_r	knee_angle_r_beta	ankle_angle_r	subtalar_angle_r	mtp_angle_r	hip_flexion_l	hip_adduction_l	hip_rotation_l	knee_angle_l	knee_angle_l_beta	ankle_angle_l	subtalar_angle_l	mtp_angle_l	lumbar_extension	lumbar_bending	lumbar_rotation	arm_flex_r	arm_add_r	arm_rot_r	elbow_flex_r	pro_sup_r	wrist_flex_r	wrist_dev_r	arm_flex_l	arm_add_l	arm_rot_l	elbow_flex_l	pro_sup_l	wrist_flex_l	wrist_dev_l
     54.94342857	     -3.39461616	     -5.54178214	      6.43102322	      0.79826329	      0.91844880	      0.46709519	     -1.88436332	      4.24728567	    -19.26232007	      9.95672236	      9.95672236	     16.37232564	      1.38174049	     -7.34685187	     30.52031807	     -7.29478514	     -0.61195652	     24.40251168	     24.40251168	      5.29855897	     -8.85030304	      7.87056285	     -7.18947955	      7.06605819	      3.94402120	     44.37341586	    -16.91439106	     -5.87077653	     93.22584845	     44.48730363	      0.00000000	      0.00000000	    -11.11565360	     -7.65449462	      7.45174429	     30.52802907	     44.28021451	      0.00000000	      0.00000000
     54.95685714	     -3.54943297	     -5.56010486	      6.15340470	      0.79922757	      0.91738503	      0.46504941	     -1.98751950	      4.10123870	    -18.51343174	     10.50723130	     10.50723130	     17.05669751	      0.57363295	     -5.87974733	     30.31213571	     -7.09521598	      0.04176427	     25.03457785	     25.03457785	      4.63268585	    -10.67311307	      6.95975093	     -7.02856845	      6.84822547	      4.09303413	     43.78730721	    -17.14438907	     -5.42983998	     94.33778803	     44.45996972	      0.00000000	      0.00000000	    -10.84791247	     -7.69320791	      6.10781901	     31.37188753	     44.51556902	      0.00000000	      0.00000000
     54.97028571	     -3.56316542	     -5.43762300	      5.85902719	      0.80034000	      0.91685872	      0.46284531	     -2.40980274	      3.78974172	    -18.25814638	     10.74452562	     10.74452562	     17.25566399	      0.55409516	     -5.76358215	     29.94275701	     -6.97658730	     -0.11386456	     25.70457188	     25.70457188	      4.80760122	    -11.07147199	      6.66493032	     -6.99399800	      6.52603883	      4.07790975	     43.35522373	    -16.86987031	     -5.25218080	     94.23666121	     44.45873802	      0.00000000	      0.00000000	    -10.25537219	     -7.87135004	      5.91509941	     31.56820164	     44.55616481	      0.00000000	      0.00000000
     54.98371429	     -3.59398412	     -5.33843087	      5.54468975	      0.80128721	      0.91652798	      0.46054587	     -2.65618847	      3.44543225	    -17.93747582	     11.25475245	     11.25475245	     17.44882450	      0.37255223	     -5.55464736	     29.60884878	     -6.85493841	     -0.19967014	     26.31044628	     26.31044628	      5.10770442	    -11.58331069	      6.31199309	     -6.99311716	      6.20325506	      4.03734299	     42.82449587	    -16.67650903	     -5.05411236	     94.06652652	     44.45958382	      0.00000000	      0.00000000	     -9.61982011	     -8.00968563	      5.65147370	     31.79091480	     44.60837963	      0.00000000	      0.00000000
     54.99714286	     -3.72504742	     -5.23311496	      5.20028582	      0.80196240	      0.91639225	      0.45804472	     -2.34204098	      2.95265074	    -17.33226584	     12.72196776	     12.72196776	     18.97165040	     -0.01719734	     -1.63698082	     29.27034724	     -6.65716819	     -0.17375349	     26.57881255	     26.57881255	      4.78141489	    -12.57408167	      4.66840820	     -6.92800371	      5.92519902	      3.87003067	     42.33270635	    -16.57479646	     -4.39821566	     93.55501460	     44.53721993	      0.00000000	      0.00000000	     -8.83909251	     -7.43704425	      1.26743308	     31.72521365	     45.31426090	      0.00000000	      0.00000000
     55.01057143	     -3.69293666	     -5.14674169	      4.94532326	      0.80270929	      0.91677431	      0.45533373	     -2.60355109	      2.57711198	    -17.12189998	     13.25506958	     13.25506958	     18.84146981	     -0.09468642	     -1.66294883	     28.86223586	     -6.50459326	     -0.24625302	     27.03026009	     27.03026009	      5.28992575	    -12.95425992	      4.45538905	     -7.03972762	      5.72912410	      3.73753249	     41.55738183	    -16.22075877	     -4.14568875	     93.25613914	     44.53747435	      0.00000000	      0.00000000	     -7.96337557	     -7.53669133	      1.19328811	     32.01393029	     45.33903139	      0.00000000	      0.00000000
     55.02400000	     -3.70481304	     -4.94019325	      4.58033433	      0.80321490	      0.91725516	      0.45249573	     -2.33903097	      1.88673851	    -16.78108020	     14.71722429	     14.71722429	     18.86121775	     -0.54191548	     -1.84874920	     28.43344419	     -6.23721200	     -0.43317624	     27.37160106	     27.37160106	      5.82807809	    -13.44240890	      4.37073288	     -7.15374372	      5.42077380	      3.79443671	     40.65270086	    -16.17672558	     -3.88000263	     92.52326103	     44.55426719	      0.00000000	      0.00000000	     -7.11569015	     -7.68529066	      0.96977937	     32.25041860	     45.38519445	      0.00000000	      0.00000000
     55.03742857	     -3.88707363	     -4.76132764	      4.24545086	      0.80344699	      0.91774673	      0.44948081	     -1.70102602	      1.15162462	    -16.46109377	     16.48131217	     16.48131217	     18.81471834	     -1.06661468	     -2.05483160	     28.13617234	     -5.92796657	     -0.54343451	     27.53243276	     27.53243276	      6.32194529	    -13.91573590	      4.53697894	     -7.05194177	      5.17308361	      3.85332601	     39.77363482	    -16.18060335	     -3.50848114	     91.45066844	     44.58307649	      0.00000000	      0.00000000	     -6.02689383	     -7.74445352	      0.58832135	     32.47803122	     45.45770590	      0.00000000	      0.00000000
     55.05085714	     -3.92297239	     -4.64341282	      3.91648239	      0.80377972	      0.91864003	      0.44638668	     -1.22271257	      0.47404755	    -16.18106796	     18.21676109	     18.21676109	     18.59611025	     -1.41645740	     -2.36115360	     27.64652805	     -5.69806320	     -0.69185102	     27.63435391	     27.63435391	      6.87141665	    -14.26556522	      4.73333149	     -7.12323242	      5.03718481	      3.82945552	     38.73064594	    -16.06036559	     -3.11030407	     90.30621193	     44.61196682	      0.00000000	      0.00000000	     -4.96434419	     -7.82631094	      0.21880429	     32.71042462	     45.52666645	      0.00000000	      0.00000000
     55.06428571	     -3.95708544	     -4.54763866	      3.59016118	      0.80405890	      0.91965037	      0.44321787	     -0.59839101	     -0.23796162	    -15.93106321	     20.19657789	     20.19657789	     18.23381116	     -1.76607391	     -2.93931210	     27.11497287	     -5.47842876	     -0.85430713	     27.65603231	     27.65603231	      7.40971160	    -14.56703265	      5.02361905	     -7.16014198	      4.95668614	      3.80290591	     37.59843682	    -15.93805736	     -2.71129106	     88.91990648	     44.64893213	      0.00000000	      0.00000000	     -3.90252508	     -7.90218845	     -0.18435314	     32.98976241	     45.59889346	      0.00000000	      0.00000000
